REM DIRINDEX 1\2,1\3,1\4
REM DIRNAME cjc153,folder01,folder02,folder03
TITLE ""
FILE "Track18.mp3" MP3
  TRACK 01 AUDIO
    TITLE "0:"
    INDEX 01 00:00:00
  TRACK 02 AUDIO
    TITLE "4:cjc153_1108"
    INDEX 01 00:00:07
  TRACK 03 AUDIO
    TITLE "0:"
    INDEX 01 00:01:71
  TRACK 04 AUDIO
    TITLE "2:cjc153_1109"
    INDEX 01 00:02:55
  TRACK 05 AUDIO
    TITLE "0:"
    INDEX 01 00:03:31
  TRACK 06 AUDIO
    TITLE "3:cjc153_1110"
    INDEX 01 00:04:07
  TRACK 07 AUDIO
    TITLE "0:"
    INDEX 01 00:04:58
  TRACK 08 AUDIO
    TITLE "2:cjc153_1111"
    INDEX 01 00:05:44
  TRACK 09 AUDIO
    TITLE "0:"
    INDEX 01 00:06:51
  TRACK 10 AUDIO
    TITLE "3:cjc153_1112"
    INDEX 01 00:07:07
  TRACK 11 AUDIO
    TITLE "0:"
    INDEX 01 00:08:19
  TRACK 12 AUDIO
    TITLE "2:cjc153_1113"
    INDEX 01 00:08:64
  TRACK 13 AUDIO
    TITLE "0:"
    INDEX 01 00:09:65
  TRACK 14 AUDIO
    TITLE "3:cjc153_1114"
    INDEX 01 00:10:21
  TRACK 15 AUDIO
    TITLE "0:"
    INDEX 01 00:11:31
  TRACK 16 AUDIO
    TITLE "2:cjc153_1115"
    INDEX 01 00:12:03
  TRACK 17 AUDIO
    TITLE "0:"
    INDEX 01 00:12:71
  TRACK 18 AUDIO
    TITLE "3:cjc153_1116"
    INDEX 01 00:13:28
  TRACK 19 AUDIO
    TITLE "0:"
    INDEX 01 00:14:07
  TRACK 20 AUDIO
    TITLE "2:cjc153_1117"
    INDEX 01 00:14:62
  TRACK 21 AUDIO
    TITLE "0:"
    INDEX 01 00:15:68
  TRACK 22 AUDIO
    TITLE "3:cjc153_1118"
    INDEX 01 00:16:28
  TRACK 23 AUDIO
    TITLE "0:"
    INDEX 01 00:17:47
  TRACK 24 AUDIO
    TITLE "2:cjc153_1119"
    INDEX 01 00:18:17
  TRACK 25 AUDIO
    TITLE "0:"
    INDEX 01 00:19:24
  TRACK 26 AUDIO
    TITLE "3:cjc153_1120"
    INDEX 01 00:19:54
  TRACK 27 AUDIO
    TITLE "0:"
    INDEX 01 00:20:67
  TRACK 28 AUDIO
    TITLE "2:cjc153_1121"
    INDEX 01 00:21:37
  TRACK 29 AUDIO
    TITLE "0:"
    INDEX 01 00:22:36
  TRACK 30 AUDIO
    TITLE "3:cjc153_1122"
    INDEX 01 00:22:68
  TRACK 31 AUDIO
    TITLE "0:"
    INDEX 01 00:24:00
  TRACK 32 AUDIO
    TITLE "2:cjc153_1123"
    INDEX 01 00:24:45
  TRACK 33 AUDIO
    TITLE "0:"
    INDEX 01 00:25:50
  TRACK 34 AUDIO
    TITLE "3:cjc153_1124"
    INDEX 01 00:26:07
  TRACK 35 AUDIO
    TITLE "0:"
    INDEX 01 00:27:18
  TRACK 36 AUDIO
    TITLE "2:cjc153_1125"
    INDEX 01 00:27:65
  TRACK 37 AUDIO
    TITLE "0:"
    INDEX 01 00:28:74
  TRACK 38 AUDIO
    TITLE "3:cjc153_1126"
    INDEX 01 00:29:31
  TRACK 39 AUDIO
    TITLE "0:"
    INDEX 01 00:30:46
  TRACK 40 AUDIO
    TITLE "2:cjc153_1127"
    INDEX 01 00:31:18
  TRACK 41 AUDIO
    TITLE "0:"
    INDEX 01 00:32:19
  TRACK 42 AUDIO
    TITLE "3:cjc153_1128"
    INDEX 01 00:32:52
  TRACK 43 AUDIO
    TITLE "0:"
    INDEX 01 00:33:60
  TRACK 44 AUDIO
    TITLE "2:cjc153_1129"
    INDEX 01 00:34:32
  TRACK 45 AUDIO
    TITLE "0:"
    INDEX 01 00:35:27
  TRACK 46 AUDIO
    TITLE "3:cjc153_1130"
    INDEX 01 00:35:61
  TRACK 47 AUDIO
    TITLE "0:"
    INDEX 01 00:36:60
  TRACK 48 AUDIO
    TITLE "2:cjc153_1131"
    INDEX 01 00:37:30
  TRACK 49 AUDIO
    TITLE "0:"
    INDEX 01 00:38:26
  TRACK 50 AUDIO
    TITLE "3:cjc153_1132"
    INDEX 01 00:38:59
  TRACK 51 AUDIO
    TITLE "0:"
    INDEX 01 00:39:60
  TRACK 52 AUDIO
    TITLE "2:cjc153_1133"
    INDEX 01 00:40:30
  TRACK 53 AUDIO
    TITLE "0:"
    INDEX 01 00:41:38
  TRACK 54 AUDIO
    TITLE "3:cjc153_1134"
    INDEX 01 00:41:73
  TRACK 55 AUDIO
    TITLE "0:"
    INDEX 01 00:43:09
  TRACK 56 AUDIO
    TITLE "2:cjc153_1135"
    INDEX 01 00:43:52
  TRACK 57 AUDIO
    TITLE "0:"
    INDEX 01 00:44:58
  TRACK 58 AUDIO
    TITLE "3:cjc153_1136"
    INDEX 01 00:45:14
  TRACK 59 AUDIO
    TITLE "0:"
    INDEX 01 00:46:21
  TRACK 60 AUDIO
    TITLE "2:cjc153_1137"
    INDEX 01 00:46:66
  TRACK 61 AUDIO
    TITLE "0:"
    INDEX 01 00:47:70
  TRACK 62 AUDIO
    TITLE "3:cjc153_1138"
    INDEX 01 00:48:30
  TRACK 63 AUDIO
    TITLE "0:"
    INDEX 01 00:49:39
  TRACK 64 AUDIO
    TITLE "2:cjc153_1139"
    INDEX 01 00:50:09
  TRACK 65 AUDIO
    TITLE "0:"
    INDEX 01 00:51:26
  TRACK 66 AUDIO
    TITLE "3:cjc153_1140"
    INDEX 01 00:51:58
  TRACK 67 AUDIO
    TITLE "0:"
    INDEX 01 00:52:73
  TRACK 68 AUDIO
    TITLE "2:cjc153_1141"
    INDEX 01 00:53:45
  TRACK 69 AUDIO
    TITLE "0:"
    INDEX 01 00:54:60
  TRACK 70 AUDIO
    TITLE "3:cjc153_1142"
    INDEX 01 00:55:20
  TRACK 71 AUDIO
    TITLE "0:"
    INDEX 01 00:56:41
  TRACK 72 AUDIO
    TITLE "2:cjc153_1143"
    INDEX 01 00:57:09
  TRACK 73 AUDIO
    TITLE "0:"
    INDEX 01 00:58:11
  TRACK 74 AUDIO
    TITLE "3:cjc153_1144"
    INDEX 01 00:58:44
  TRACK 75 AUDIO
    TITLE "0:"
    INDEX 01 00:59:55
  TRACK 76 AUDIO
    TITLE "2:cjc153_1145"
    INDEX 01 01:00:25
  TRACK 77 AUDIO
    TITLE "0:"
    INDEX 01 01:01:21
  TRACK 78 AUDIO
    TITLE "3:cjc153_1146"
    INDEX 01 01:01:54
  TRACK 79 AUDIO
    TITLE "0:"
    INDEX 01 01:02:55
  TRACK 80 AUDIO
    TITLE "2:cjc153_1147"
    INDEX 01 01:03:26
  TRACK 81 AUDIO
    TITLE "0:"
    INDEX 01 01:04:21
  TRACK 82 AUDIO
    TITLE "3:cjc153_1148"
    INDEX 01 01:04:52
  TRACK 83 AUDIO
    TITLE "0:"
    INDEX 01 01:05:48
